<svg width="24" height="57" viewBox="0 0 24 57" fill="none" xmlns="http://www.w3.org/2000/svg">
<path d="M19.8445 26.4332H19.2001V26.4H12V29.6H16.5213C15.8617 31.4628 14.0892 32.8001 12 32.8001C9.34922 32.8001 7.20001 30.6508 7.20001 28C7.20001 25.3492 9.34922 23.2 12 23.2C13.2236 23.2 14.3368 23.6616 15.1844 24.4156L17.4473 22.1528C16.0185 20.8212 14.1072 20 12 20C7.58202 20 4 23.582 4 28C4 32.4181 7.58202 36.0001 12 36.0001C16.4181 36.0001 20.0001 32.4181 20.0001 28C20.0001 27.4636 19.9449 26.94 19.8445 26.4332Z" fill="#FFC107"/>
<path d="M4.92188 24.2764L7.55029 26.204C8.26149 24.4432 9.9839 23.2 11.9995 23.2C13.2231 23.2 14.3363 23.6616 15.1839 24.4156L17.4467 22.1528C16.0179 20.8212 14.1067 20 11.9995 20C8.92669 20 6.26188 21.7348 4.92188 24.2764Z" fill="#FF3D00"/>
<path d="M12.0001 36.0005C14.0665 36.0005 15.9441 35.2097 17.3637 33.9237L14.8877 31.8285C14.0845 32.4369 13.0861 32.8005 12.0001 32.8005C9.91927 32.8005 8.15247 31.4737 7.48686 29.6221L4.87805 31.6321C6.20206 34.2229 8.89087 36.0005 12.0001 36.0005Z" fill="#4CAF50"/>
<path d="M19.8444 26.4331H19.2V26.3999H12V29.5999H16.5212C16.2044 30.4947 15.6288 31.2663 14.8864 31.8283C14.8868 31.8279 14.8872 31.8279 14.8876 31.8275L17.3636 33.9227C17.1884 34.0819 20 31.9999 20 27.9999C20 27.4635 19.9448 26.9399 19.8444 26.4331Z" fill="#1976D2"/>
</svg>
